<svg xmlns="http://www.w3.org/2000/svg" width="400" height="300" viewBox="0 0 400 300">
  <rect fill="#0D1B2A" width="400" height="300" rx="8"/>
  <rect x="120" y="30" width="160" height="50" rx="8" fill="#1B2838" stroke="#8B5CF6" stroke-width="1.5"/>
  <text x="200" y="60" text-anchor="middle" fill="#C4B5FD" font-family="sans-serif" font-size="11" font-weight="600">API + Database</text>
  <rect x="30" y="120" width="100" height="70" rx="8" fill="#1B2838" stroke="#3B82F6" stroke-width="1.5"/>
  <rect x="44" y="136" width="24" height="38" rx="4" fill="#1E3A5F"/>
  <rect x="48" y="142" width="16" height="3" rx="1.5" fill="#3B82F6" opacity="0.6"/>
  <rect x="48" y="149" width="12" height="3" rx="1.5" fill="#3B82F6" opacity="0.4"/>
  <rect x="48" y="156" width="14" height="3" rx="1.5" fill="#3B82F6" opacity="0.4"/>
  <text x="80" y="162" text-anchor="middle" fill="#93C5FD" font-family="sans-serif" font-size="8">Mobile</text>
  <rect x="150" y="120" width="100" height="70" rx="8" fill="#1B2838" stroke="#10B981" stroke-width="1.5"/>
  <rect x="164" y="134" width="72" height="6" rx="3" fill="#10B981" opacity="0.5"/>
  <rect x="164" y="146" width="72" height="20" rx="3" fill="#1E3A5F"/>
  <rect x="164" y="172" width="34" height="10" rx="3" fill="#10B981" opacity="0.3"/>
  <rect x="202" y="172" width="34" height="10" rx="3" fill="#10B981" opacity="0.3"/>
  <text x="200" y="162" text-anchor="middle" fill="#6EE7B7" font-family="sans-serif" font-size="8">Web Portal</text>
  <rect x="270" y="120" width="100" height="70" rx="8" fill="#1B2838" stroke="#F59E0B" stroke-width="1.5"/>
  <rect x="284" y="138" width="72" height="8" rx="4" fill="#F59E0B" opacity="0.3"/>
  <rect x="284" y="152" width="72" height="8" rx="4" fill="#F59E0B" opacity="0.3"/>
  <rect x="284" y="166" width="48" height="8" rx="4" fill="#F59E0B" opacity="0.3"/>
  <text x="320" y="136" text-anchor="middle" fill="#FCD34D" font-family="sans-serif" font-size="8">Exports</text>
  <path d="M170 80 L80 120" stroke="#3B82F6" stroke-width="1.5" opacity="0.5"/>
  <path d="M200 80 L200 120" stroke="#10B981" stroke-width="1.5" opacity="0.5"/>
  <path d="M230 80 L320 120" stroke="#F59E0B" stroke-width="1.5" opacity="0.5"/>
  <rect x="100" y="230" width="200" height="40" rx="8" fill="#1B2838" stroke="#64748B" stroke-width="1" stroke-dasharray="4 3"/>
  <text x="200" y="254" text-anchor="middle" fill="#94A3B8" font-family="sans-serif" font-size="10">Shared Types + Validators</text>
  <path d="M200 190 L200 230" stroke="#64748B" stroke-width="1" stroke-dasharray="3 3" opacity="0.4"/>
</svg>
